<svg xmlns="http://www.w3.org/2000/svg" width="180" height="48" viewBox="0 0 180 48" fill="none"><g clip-path="url(#clip0_1_37)"><mask id="mask0_1_37" style="mask-type:luminance" maskUnits="userSpaceOnUse" x="8" y="14" width="20" height="33"><path d="M25.2028 24.925C19.6287 22.2352 12.6412 23.0708 11.391 14.7104C-4.01321e-06 38.2864 20.9947 44.8734 27.683 46.5001L26.5227 44.9329L23.2655 37.9756C17.626 34.7835 15.5603 30.4208 15.5603 30.4208C17.5213 32.2455 19.6477 33.5651 21.6464 34.5171L25.2028 24.925Z" fill="white"></path></mask><g mask="url(#mask0_1_37)"><path d="M27.683 14.7104H0V46.5001H27.683V14.7104Z" fill="#AB6530"></path></g><path opacity="0.3" fill-rule="evenodd" clip-rule="evenodd" d="M21.5572 44.5229C23.9671 45.5208 26.1846 46.1355 27.6832 46.4999L26.5229 44.9327L23.2657 37.9754C21.4019 36.9204 19.9285 35.7374 18.7909 34.6266V34.6268C18.8634 38.2223 20.2667 41.8888 21.5572 44.5229ZM25.2028 24.9248C24.5786 24.6235 23.9366 24.3667 23.2871 24.1362C21.2782 26.6831 19.3392 29.6769 18.8878 32.9898C19.8154 33.5822 20.7441 34.0871 21.6466 34.5169L25.2028 24.9248Z" fill="#AB6530"></path><mask id="mask1_1_37" style="mask-type:luminance" maskUnits="userSpaceOnUse" x="20" y="1" width="25" height="46"><path d="M27.6831 46.5C24.9514 44.1233 20.6889 39.7352 20.2524 35.185C19.6049 28.4362 27.5522 20.3849 30.4955 16.9512C33.4389 13.5177 37.9127 6.47284 35.9702 1.5C35.9702 1.5 43.7998 6.8281 44.3295 16.2409C45 28.152 31.2318 33.8094 29.9732 45.0416C24.5399 35.2401 31.5196 28.8195 35.0289 23.5811C38.7965 17.9571 38.3844 13.9907 38.3844 13.9907C37.2658 19.2596 34.0872 22.634 32.2842 24.9138C30.4813 27.1936 25.0971 32.6425 25.3745 38.3224C25.5183 41.2702 26.6386 44.283 27.6831 46.5Z" fill="white"></path></mask><g mask="url(#mask1_1_37)"><path d="M45 1.5H19.6049V46.5H45V1.5Z" fill="#AB6530"></path></g><mask id="mask2_1_37" style="mask-type:luminance" maskUnits="userSpaceOnUse" x="17" y="10" width="11" height="11"><path d="M22.2754 10.0532C25.1689 10.0532 27.5146 12.4122 27.5146 15.3222C27.5146 18.232 25.1689 20.5911 22.2754 20.5911C19.3817 20.5911 17.036 18.2322 17.036 15.3222C17.0362 12.4122 19.3819 10.0532 22.2754 10.0532Z" fill="white"></path></mask><g mask="url(#mask2_1_37)"><path d="M27.5148 10.0532H17.0363V20.5909H27.5148V10.0532Z" fill="#AB6530"></path></g></g><path d="M79.9531 15.9844C79.9531 13.7448 78.8958 12.625 76.7812 12.625C75.8646 12.625 75.0729 12.9062 74.4062 13.4688C73.7396 14.0312 73.224 14.7552 72.8594 15.6406C72.4948 16.526 72.1354 17.5938 71.7812 18.8438C71.4375 20.0938 71.1302 21.3333 70.8594 22.5625C70.1823 25.5938 69.224 28.1198 67.9844 30.1406C68.3594 30.3073 68.9323 30.5781 69.7031 30.9531C70.474 31.3177 71.0938 31.6042 71.5625 31.8125C72.875 32.4062 74.026 32.7031 75.0156 32.7031C75.4531 32.7031 75.8646 32.5938 76.25 32.375C76.6354 32.1562 76.9271 31.9219 77.125 31.6719C77.3333 31.4115 77.5104 31.1719 77.6562 30.9531C77.8125 30.7344 77.9062 30.625 77.9375 30.625L78.6406 31.0312C77.724 32.7604 76.7552 33.8333 75.7344 34.25C75.276 34.4375 74.6875 34.5312 73.9688 34.5312C73.25 34.5312 72.4583 34.401 71.5938 34.1406C70.7396 33.8906 69.776 33.526 68.7031 33.0469C67.6406 32.5677 66.8906 32.25 66.4531 32.0938C65.6198 32.8125 64.5521 33.401 63.25 33.8594C61.9583 34.3073 60.474 34.5312 58.7969 34.5312C57.9531 34.5312 57.1875 34.375 56.5 34.0625C55.1979 33.4583 54.5469 32.6927 54.5469 31.7656C54.5469 30.8385 54.8333 30.0573 55.4062 29.4219C56.5 28.2135 58.0156 27.6094 59.9531 27.6094C61.3385 27.6094 62.8021 27.8958 64.3438 28.4688C64.9062 28.6875 65.6406 28.9896 66.5469 29.375C66.9948 28.1354 67.375 26.7083 67.6875 25.0938C68 23.4792 68.2917 22.1458 68.5625 21.0938C68.8333 20.0312 69.1094 19.0573 69.3906 18.1719C69.6823 17.276 70.0573 16.4062 70.5156 15.5625C70.9844 14.7188 71.5 14 72.0625 13.4062C73.3021 12.1146 74.9167 11.4688 76.9062 11.4688C78.4167 11.4688 79.6458 11.9062 80.5938 12.7812C81.5521 13.6562 82.0312 14.8854 82.0312 16.4688C82.0312 17.6458 81.7917 18.7917 81.3125 19.9062C80.8438 21.0104 80.2188 21.9844 79.4375 22.8281C78.6562 23.6719 77.75 24.3854 76.7188 24.9688C75.6979 25.5521 74.6406 25.9375 73.5469 26.125L73.3281 25.2656C74.599 24.9531 75.7448 24.3177 76.7656 23.3594C77.7865 22.3906 78.5729 21.2604 79.125 19.9688C79.6771 18.6667 79.9531 17.3385 79.9531 15.9844ZM55.5312 31.5781C55.5312 32.401 56.0417 32.9531 57.0625 33.2344C59.1771 33.8177 61.2812 33.6354 63.375 32.6875C64.1562 32.3229 64.7552 31.8698 65.1719 31.3281C63.0885 29.9219 61.1979 29.2188 59.5 29.2188C56.8542 29.2188 55.5312 30.0052 55.5312 31.5781ZM82.6562 34.25C82.2188 34.25 81.875 34.1146 81.625 33.8438C81.375 33.5729 81.25 33.2031 81.25 32.7344C81.25 32.2552 81.3698 31.6094 81.6094 30.7969C81.8594 29.974 82.1042 29.2292 82.3438 28.5625C82.5938 27.8958 82.7188 27.4531 82.7188 27.2344C82.7188 27.0052 82.6458 26.8906 82.5 26.8906C82.1354 26.8906 81.5469 27.6094 80.7344 29.0469L79.6875 28.4375C81.2188 25.8542 82.625 24.5625 83.9062 24.5625C84.7812 24.5625 85.2188 25.1146 85.2188 26.2188C85.2188 26.5417 85.1146 27.0573 84.9062 27.7656L83.7812 30.9844C83.6667 31.2865 83.6094 31.5625 83.6094 31.8125C83.6094 32.0521 83.7031 32.1719 83.8906 32.1719C84.2448 32.1719 84.8958 31.5156 85.8438 30.2031L86.5 30.8125C85.9375 31.8542 85.2656 32.6875 84.4844 33.3125C83.7135 33.9375 83.1042 34.25 82.6562 34.25ZM87.1094 19.9531C87.1094 20.3698 86.9688 20.75 86.6875 21.0938C86.4062 21.4375 86.026 21.6094 85.5469 21.6094C85.0677 21.6094 84.7083 21.4688 84.4688 21.1875C84.2292 20.8958 84.1094 20.5312 84.1094 20.0938C84.1094 19.6562 84.2552 19.2708 84.5469 18.9375C84.849 18.5938 85.2344 18.4219 85.7031 18.4219C86.1719 18.4219 86.5208 18.5729 86.75 18.875C86.9896 19.1667 87.1094 19.526 87.1094 19.9531ZM92.9688 25.9375L92.5938 27.5312C91.8958 30.4792 91.3177 32.5521 90.8594 33.75C89.974 36.0312 88.8385 37.474 87.4531 38.0781C86.8802 38.3281 86.3021 38.4531 85.7188 38.4531C85.125 38.4531 84.7083 38.3385 84.4688 38.1094C84.2292 37.8906 84.1094 37.6198 84.1094 37.2969C84.1094 36.9844 84.2135 36.7135 84.4219 36.4844C84.6302 36.2552 84.8958 36.1406 85.2188 36.1406C85.5312 36.1406 85.7917 36.2135 86 36.3594C86.2083 36.5052 86.3125 36.7031 86.3125 36.9531C86.3125 37.2135 86.2396 37.4583 86.0938 37.6875C87.1667 37.5208 88.1302 35.4896 88.9844 31.5938C89.1198 30.9792 89.2708 30.25 89.4375 29.4062C89.6146 28.5521 89.75 27.9271 89.8438 27.5312L90.2188 25.9375H87.2812L87.5312 24.9062H90.4375C91.6771 19.875 93.1302 16.3646 94.7969 14.375C96.1719 12.7396 97.8333 11.9219 99.7812 11.9219C100.656 11.9219 101.391 12.099 101.984 12.4531C102.589 12.8073 102.891 13.3958 102.891 14.2188C102.891 14.6979 102.724 15.0781 102.391 15.3594C102.068 15.6302 101.682 15.7656 101.234 15.7656C100.797 15.7656 100.422 15.6406 100.109 15.3906C99.8073 15.1302 99.6562 14.7969 99.6562 14.3906C99.6562 13.9844 99.7969 13.5885 100.078 13.2031C99.5677 13.026 99.1667 12.9375 98.875 12.9375C98.5833 12.9375 98.2344 13.0833 97.8281 13.375C97.4323 13.6562 97.0781 14.0365 96.7656 14.5156C95.5469 16.3906 94.3594 19.8542 93.2031 24.9062H96.9375L96.6875 25.9375H92.9688ZM98.3438 30.9219C98.4062 32.1198 99.2135 32.7188 100.766 32.7188C101.339 32.7188 101.932 32.5573 102.547 32.2344C103.172 31.901 103.677 31.5104 104.062 31.0625L104.734 31.5C103.87 32.9479 102.49 33.8333 100.594 34.1562C100.177 34.2188 99.776 34.25 99.3906 34.25C98.2656 34.25 97.3281 33.8802 96.5781 33.1406C95.8281 32.3906 95.4531 31.4792 95.4531 30.4062C95.4531 29.3333 95.7812 28.3438 96.4375 27.4375C97.0938 26.5208 97.9115 25.8125 98.8906 25.3125C99.8802 24.8125 100.854 24.5625 101.812 24.5625C102.771 24.5625 103.599 24.7812 104.297 25.2188C105.005 25.6562 105.365 26.2448 105.375 26.9844C105.396 27.724 105.182 28.3646 104.734 28.9062C104.286 29.4375 103.719 29.8438 103.031 30.125C101.667 30.6771 100.328 30.9531 99.0156 30.9531L98.3438 30.9219ZM98.25 30.0625C99.4062 30.0208 100.333 29.8385 101.031 29.5156C101.74 29.1823 102.229 28.8073 102.5 28.3906C102.781 27.9635 102.922 27.5208 102.922 27.0625C102.922 26.5938 102.802 26.25 102.562 26.0312C102.323 25.8021 102.068 25.6875 101.797 25.6875C101.13 25.6875 100.516 25.9219 99.9531 26.3906C99.401 26.849 98.9792 27.4115 98.6875 28.0781C98.3958 28.7344 98.25 29.3958 98.25 30.0625ZM128.125 29.2969L128.875 30C126.51 33.0729 123.661 34.6094 120.328 34.6094C118.151 34.6094 116.312 33.9062 114.812 32.5C114.083 31.8229 113.505 30.9583 113.078 29.9062C112.661 28.8542 112.453 27.651 112.453 26.2969C112.453 24.9427 112.708 23.5365 113.219 22.0781C113.729 20.6094 114.438 19.25 115.344 18C116.25 16.75 117.286 15.6354 118.453 14.6562C119.62 13.6667 120.906 12.8906 122.312 12.3281C123.719 11.7552 125.198 11.4688 126.75 11.4688C128.302 11.4688 129.646 11.9635 130.781 12.9531C131.917 13.9427 132.484 15.3281 132.484 17.1094C132.484 18.1615 132.24 19.2708 131.75 20.4375C131.271 21.5938 130.646 22.6458 129.875 23.5938C129.115 24.5312 128.214 25.3073 127.172 25.9219C126.13 26.5365 125.094 26.8438 124.062 26.8438C123.031 26.8438 122.214 26.5104 121.609 25.8438C121.005 25.1771 120.703 24.401 120.703 23.5156C120.703 21.9948 121.333 20.526 122.594 19.1094C123.865 17.6823 125.495 16.6302 127.484 15.9531L127.844 16.7812C126.844 17.1146 125.901 17.6719 125.016 18.4531C124.13 19.2344 123.438 20.0729 122.938 20.9688C122.448 21.8542 122.203 22.625 122.203 23.2812C122.203 24.6458 122.964 25.3281 124.484 25.3281C125.547 25.3281 126.609 24.8594 127.672 23.9219C128.745 22.9844 129.599 21.8854 130.234 20.625C130.88 19.3542 131.203 18.1354 131.203 16.9688C131.203 15.7917 130.807 14.8333 130.016 14.0938C129.224 13.3438 128.172 12.9688 126.859 12.9688C125.547 12.9688 124.198 13.3646 122.812 14.1562C121.427 14.9479 120.198 15.9635 119.125 17.2031C118.062 18.4427 117.188 19.8698 116.5 21.4844C115.823 23.0885 115.484 24.6667 115.484 26.2188C115.484 28.7292 116.323 30.5729 118 31.75C118.979 32.4375 120.089 32.7812 121.328 32.7812C122.578 32.7812 123.807 32.4792 125.016 31.875C126.224 31.2604 127.26 30.401 128.125 29.2969ZM130.922 30.2812C130.922 29.5 131.109 28.75 131.484 28.0312C131.87 27.3021 132.365 26.6875 132.969 26.1875C134.302 25.1042 135.661 24.5625 137.047 24.5625C138.432 24.5625 139.568 24.9323 140.453 25.6719C141.339 26.4115 141.781 27.3385 141.781 28.4531C141.781 29.5573 141.474 30.5521 140.859 31.4375C140.255 32.3229 139.453 33.0156 138.453 33.5156C137.453 34.0052 136.359 34.25 135.172 34.25C133.995 34.25 132.99 33.8802 132.156 33.1406C131.333 32.3906 130.922 31.4375 130.922 30.2812ZM136.031 33.2812C136.51 33.2812 136.958 33.125 137.375 32.8125C137.802 32.5 138.125 32.0938 138.344 31.5938C138.771 30.6354 138.984 29.6458 138.984 28.625C138.984 27.6042 138.797 26.8333 138.422 26.3125C138.047 25.7812 137.516 25.5156 136.828 25.5156C136.141 25.5156 135.458 25.9635 134.781 26.8594C134.115 27.7552 133.781 28.8958 133.781 30.2812C133.781 32.2812 134.531 33.2812 136.031 33.2812ZM151.703 24.9062H154.141L152.906 29.5781C152.708 30.2344 152.609 30.8333 152.609 31.375C152.609 31.9062 152.703 32.1719 152.891 32.1719C153.078 32.1719 153.333 32.0104 153.656 31.6875C153.99 31.3542 154.271 31.0208 154.5 30.6875L154.859 30.1875L155.531 30.8125C155.188 31.4792 154.75 32.0885 154.219 32.6406C153.188 33.7135 152.292 34.25 151.531 34.25C150.635 34.25 150.188 33.5573 150.188 32.1719C150.188 31.9427 150.198 31.7708 150.219 31.6562C150.062 32.1875 149.766 32.6562 149.328 33.0625C148.495 33.8542 147.552 34.25 146.5 34.25C145.458 34.25 144.62 33.8958 143.984 33.1875C143.359 32.4688 143.047 31.5729 143.047 30.5C143.047 28.8333 143.589 27.4271 144.672 26.2812C145.755 25.1354 147.026 24.5625 148.484 24.5625C149.214 24.5625 149.818 24.7656 150.297 25.1719C150.776 25.5677 151.089 26.0885 151.234 26.7344L151.703 24.9062ZM149.094 25.9062C148.49 25.9062 147.922 26.1615 147.391 26.6719C146.87 27.1719 146.469 27.7812 146.188 28.5C145.906 29.2083 145.766 29.901 145.766 30.5781C145.766 31.2552 145.911 31.8021 146.203 32.2188C146.505 32.6354 146.964 32.8438 147.578 32.8438C148.203 32.8438 148.766 32.5625 149.266 32C150.214 30.9167 150.688 29.6302 150.688 28.1406C150.688 26.651 150.156 25.9062 149.094 25.9062ZM164.5 30.7656L165.141 31.2188C164.682 32.1458 163.974 32.8854 163.016 33.4375C162.068 33.9792 161.073 34.25 160.031 34.25C158.99 34.25 158.109 33.9323 157.391 33.2969C156.682 32.6615 156.328 31.7656 156.328 30.6094C156.328 29.4427 156.682 28.3906 157.391 27.4531C158.109 26.5156 158.99 25.8021 160.031 25.3125C161.073 24.8125 162.125 24.5625 163.188 24.5625C164.49 24.5625 165.365 24.875 165.812 25.5C166 25.75 166.094 26.0677 166.094 26.4531C166.094 26.8281 165.964 27.1458 165.703 27.4062C165.443 27.6667 165.13 27.7969 164.766 27.7969C164.401 27.7969 164.094 27.6823 163.844 27.4531C163.594 27.2135 163.469 26.9115 163.469 26.5469C163.469 26.1823 163.693 25.849 164.141 25.5469C163.745 25.4219 163.38 25.3594 163.047 25.3594C162.328 25.3594 161.667 25.625 161.062 26.1562C160.458 26.6875 160 27.3333 159.688 28.0938C159.375 28.8438 159.219 29.5833 159.219 30.3125C159.219 31.0417 159.391 31.6302 159.734 32.0781C160.089 32.5156 160.594 32.7344 161.25 32.7344C161.906 32.7344 162.536 32.5521 163.141 32.1875C163.745 31.8125 164.198 31.3385 164.5 30.7656ZM173.609 32.5625C173.609 32.0208 173.828 31.151 174.266 29.9531C174.703 28.7552 174.922 27.901 174.922 27.3906C174.922 26.8698 174.74 26.6094 174.375 26.6094C174.021 26.6094 173.589 26.8646 173.078 27.375C172.568 27.875 172.078 28.4896 171.609 29.2188C170.839 30.3958 170.062 31.7396 169.281 33.25L168.875 34H166.625C167.135 30.2292 167.625 27.4375 168.094 25.625C168.562 23.8125 169.01 22.2656 169.438 20.9844C169.865 19.7031 170.323 18.5677 170.812 17.5781C171.917 15.3073 173.188 13.625 174.625 12.5312L175.812 13.0781C174.698 14.1927 173.672 16.1562 172.734 18.9688C171.807 21.7708 170.776 25.6406 169.641 30.5781C169.703 30.474 169.828 30.2552 170.016 29.9219C170.214 29.5781 170.365 29.3229 170.469 29.1562C170.573 28.9792 170.729 28.7188 170.938 28.375C171.156 28.0312 171.339 27.7604 171.484 27.5625C171.63 27.3542 171.818 27.099 172.047 26.7969C172.286 26.4948 172.495 26.2552 172.672 26.0781C172.859 25.8906 173.078 25.6927 173.328 25.4844C173.578 25.2656 173.818 25.0938 174.047 24.9688C174.578 24.6979 175.146 24.5625 175.75 24.5625C176.354 24.5625 176.807 24.7292 177.109 25.0625C177.422 25.3958 177.578 25.8438 177.578 26.4062C177.578 26.9688 177.318 27.9167 176.797 29.25C176.276 30.5729 176.016 31.3906 176.016 31.7031C176.016 32.0156 176.099 32.1719 176.266 32.1719C176.703 32.1719 177.365 31.5104 178.25 30.1875L178.922 30.8125C178.255 31.9583 177.557 32.8177 176.828 33.3906C176.109 33.9635 175.516 34.25 175.047 34.25C174.589 34.25 174.234 34.1042 173.984 33.8125C173.734 33.5208 173.609 33.1042 173.609 32.5625Z" fill="#AB6530"></path><defs><clipPath id="clip0_1_37"><rect width="45" height="45" fill="white" transform="translate(0 1.5)"></rect></clipPath></defs></svg>